<svg width="1018" height="1024" viewBox="0 0 1018 1024" fill="none" xmlns="http://www.w3.org/2000/svg">
<g filter="url(#filter0_d)">
<rect x="406.586" width="650" height="400" rx="15" transform="rotate(45 406.586 0)" fill="black"/>
</g>
<path d="M183.233 268.976L185.269 271.013L176.402 288.832L174.662 287.092L176.911 282.553L171.608 277.249L167.068 279.498L165.307 277.737L183.233 268.976ZM173.368 276.38L177.802 280.813L182.172 272.031L173.368 276.38ZM195.434 281.178L197.471 283.215L188.604 301.034L186.864 299.294L189.113 294.755L183.81 289.451L179.27 291.7L177.509 289.939L195.434 281.178ZM185.57 288.581L190.004 293.015L194.374 284.233L185.57 288.581ZM206.342 292.086L200.169 298.259L212.303 298.047L214.615 300.359L202.778 300.529L201.633 314.063L199.469 311.899L200.487 300.571L197.814 300.614L192.999 305.429L191.302 303.732L204.645 290.389L206.342 292.086ZM220.563 306.307L222.599 308.343L213.732 326.162L211.993 324.423L214.241 319.883L208.938 314.58L204.398 316.828L202.638 315.068L220.563 306.307ZM210.699 313.71L215.132 318.144L219.502 309.361L210.699 313.71ZM233.634 325.869C234.695 324.328 234.391 322.723 232.722 321.054C231.831 320.163 230.947 319.675 230.071 319.59C229.208 319.491 228.501 319.717 227.949 320.269C227.412 320.806 227.15 321.365 227.164 321.945C227.178 322.525 227.412 323.253 227.864 324.13L229.689 327.863C230.311 329.136 230.615 330.331 230.601 331.448C230.601 332.58 230.085 333.662 229.052 334.694C228.034 335.712 226.733 336.137 225.149 335.967C223.579 335.783 222.059 334.956 220.588 333.485C219.117 332.014 218.276 330.437 218.064 328.754C217.88 327.071 218.446 325.544 219.761 324.172L221.394 325.806C220.518 326.682 220.15 327.658 220.291 328.733C220.447 329.822 221.005 330.847 221.967 331.809C222.943 332.785 223.926 333.343 224.916 333.485C225.92 333.612 226.712 333.386 227.292 332.806C227.886 332.212 228.175 331.569 228.161 330.876C228.161 330.197 227.935 329.405 227.483 328.5L225.998 325.275C225.262 323.805 224.866 322.532 224.81 321.457C224.753 320.382 225.213 319.357 226.189 318.381C227.178 317.391 228.395 316.967 229.837 317.108C231.294 317.236 232.736 318.013 234.165 319.442C235.593 320.87 236.364 322.277 236.477 323.663C236.618 325.049 236.215 326.329 235.268 327.503L233.634 325.869ZM244.293 330.037L238.417 335.913L244.972 342.468L250.848 336.592L252.524 338.268L239.181 351.611L237.505 349.935L243.53 343.91L236.975 337.356L230.95 343.38L229.274 341.704L242.617 328.361L244.293 330.037ZM259.847 345.591L270.221 355.964L268.778 357.407L264.429 353.058L252.529 364.959L250.853 363.283L262.754 351.382L258.405 347.034L259.847 345.591ZM274.166 359.91L268.29 365.786L274.845 372.34L280.721 366.464L282.397 368.14L269.053 381.483L267.378 379.808L273.402 373.783L266.847 367.228L260.823 373.253L259.147 371.577L272.49 358.234L274.166 359.91ZM289.672 375.415L291.708 377.452L282.841 395.271L281.101 393.531L283.35 388.992L278.047 383.688L273.507 385.937L271.746 384.176L289.672 375.415ZM279.807 382.819L284.241 387.252L288.611 378.47L279.807 382.819ZM303.146 388.89C304.617 390.361 305.359 391.853 305.373 393.366C305.416 394.879 304.808 396.265 303.549 397.524C302.29 398.782 300.905 399.39 299.391 399.348C297.906 399.305 296.429 398.549 294.958 397.078L292.327 394.448L287.172 399.602L285.497 397.927L298.84 384.583L303.146 388.89ZM296.4 395.636C297.319 396.555 298.246 397.014 299.179 397.014C300.127 397.029 301.004 396.633 301.81 395.826C302.63 395.006 303.04 394.115 303.04 393.154C303.068 392.192 302.623 391.252 301.704 390.332L299.073 387.702L293.77 393.005L296.4 395.636ZM312.811 398.555L314.848 400.592L305.981 418.411L304.241 416.671L306.49 412.131L301.186 406.828L296.647 409.077L294.886 407.316L312.811 398.555ZM302.947 405.958L307.381 410.392L311.751 401.61L302.947 405.958Z" fill="white"/>
<g filter="url(#filter1_i)">
<rect x="646.296" y="522.552" width="80" height="60" rx="10" transform="rotate(45 646.296 522.552)" fill="#DCDCDC"/>
</g>
<path d="M207.96 239.426C209.563 237.824 211.071 237.069 212.486 237.164C213.9 237.258 215.161 237.859 216.269 238.967C217.376 240.075 217.977 241.336 218.072 242.75C218.166 244.164 217.412 245.672 215.809 247.275C214.253 248.831 212.757 249.573 211.319 249.503C209.881 249.432 208.608 248.843 207.501 247.735C206.393 246.627 205.803 245.354 205.733 243.916C205.662 242.479 206.404 240.982 207.96 239.426ZM221.253 252.719C222.856 251.116 224.364 250.362 225.778 250.456C227.193 250.551 228.454 251.152 229.561 252.26C230.669 253.367 231.27 254.628 231.365 256.043C231.459 257.457 230.705 258.965 229.102 260.568C227.546 262.124 226.049 262.866 224.612 262.795C223.174 262.725 221.901 262.135 220.793 261.028C219.685 259.92 219.096 258.647 219.026 257.209C218.955 255.771 219.697 254.275 221.253 252.719ZM234.546 266.012C236.148 264.409 237.657 263.655 239.071 263.749C240.485 263.843 241.746 264.444 242.854 265.552C243.962 266.66 244.563 267.921 244.657 269.335C244.752 270.75 243.997 272.258 242.395 273.861C240.839 275.416 239.342 276.159 237.904 276.088C236.467 276.017 235.194 275.428 234.086 274.32C232.978 273.213 232.389 271.94 232.318 270.502C232.248 269.064 232.99 267.568 234.546 266.012ZM247.838 279.305C249.441 277.702 250.95 276.948 252.364 277.042C253.778 277.136 255.039 277.737 256.147 278.845C257.255 279.953 257.856 281.214 257.95 282.628C258.044 284.042 257.29 285.551 255.687 287.154C254.132 288.709 252.635 289.452 251.197 289.381C249.759 289.31 248.487 288.721 247.379 287.613C246.271 286.505 245.682 285.233 245.611 283.795C245.54 282.357 246.283 280.86 247.838 279.305ZM269.556 301.022C271.159 299.419 272.667 298.665 274.081 298.759C275.495 298.854 276.756 299.455 277.864 300.562C278.972 301.67 279.573 302.931 279.667 304.345C279.762 305.76 279.007 307.268 277.405 308.871C275.849 310.427 274.352 311.169 272.915 311.098C271.477 311.028 270.204 310.438 269.096 309.33C267.988 308.223 267.399 306.95 267.328 305.512C267.258 304.074 268 302.578 269.556 301.022ZM282.849 314.315C284.451 312.712 285.96 311.958 287.374 312.052C288.788 312.146 290.049 312.747 291.157 313.855C292.265 314.963 292.866 316.224 292.96 317.638C293.054 319.052 292.3 320.561 290.697 322.164C289.142 323.719 287.645 324.462 286.207 324.391C284.77 324.32 283.497 323.731 282.389 322.623C281.281 321.515 280.692 320.243 280.621 318.805C280.55 317.367 281.293 315.87 282.849 314.315ZM296.141 327.608C297.744 326.005 299.253 325.251 300.667 325.345C302.081 325.439 303.342 326.04 304.45 327.148C305.558 328.256 306.159 329.517 306.253 330.931C306.347 332.345 305.593 333.854 303.99 335.456C302.435 337.012 300.938 337.755 299.5 337.684C298.062 337.613 296.79 337.024 295.682 335.916C294.574 334.808 293.985 333.535 293.914 332.098C293.843 330.66 294.586 329.163 296.141 327.608ZM309.434 340.9C311.037 339.298 312.545 338.543 313.96 338.638C315.374 338.732 316.635 339.333 317.743 340.441C318.85 341.549 319.451 342.81 319.546 344.224C319.64 345.638 318.886 347.146 317.283 348.749C315.727 350.305 314.231 351.047 312.793 350.977C311.355 350.906 310.082 350.317 308.974 349.209C307.867 348.101 307.277 346.828 307.207 345.39C307.136 343.953 307.878 342.456 309.434 340.9ZM331.151 362.618C332.754 361.015 334.263 360.261 335.677 360.355C337.091 360.449 338.352 361.05 339.46 362.158C340.568 363.266 341.169 364.527 341.263 365.941C341.357 367.355 340.603 368.864 339 370.467C337.445 372.022 335.948 372.765 334.51 372.694C333.072 372.623 331.8 372.034 330.692 370.926C329.584 369.818 328.995 368.546 328.924 367.108C328.853 365.67 329.596 364.173 331.151 362.618ZM344.444 375.91C346.047 374.308 347.555 373.553 348.97 373.648C350.384 373.742 351.645 374.343 352.753 375.451C353.86 376.559 354.462 377.82 354.556 379.234C354.65 380.648 353.896 382.157 352.293 383.759C350.737 385.315 349.241 386.057 347.803 385.987C346.365 385.916 345.092 385.327 343.985 384.219C342.877 383.111 342.287 381.838 342.217 380.401C342.146 378.963 342.889 377.466 344.444 375.91ZM357.737 389.203C359.34 387.6 360.848 386.846 362.262 386.94C363.677 387.035 364.938 387.636 366.045 388.744C367.153 389.851 367.754 391.112 367.849 392.527C367.943 393.941 367.189 395.449 365.586 397.052C364.03 398.608 362.533 399.35 361.096 399.279C359.658 399.209 358.385 398.619 357.277 397.512C356.17 396.404 355.58 395.131 355.51 393.693C355.439 392.256 356.181 390.759 357.737 389.203ZM371.03 402.496C372.633 400.893 374.141 400.139 375.555 400.233C376.969 400.327 378.23 400.929 379.338 402.036C380.446 403.144 381.047 404.405 381.141 405.819C381.236 407.234 380.481 408.742 378.879 410.345C377.323 411.9 375.826 412.643 374.388 412.572C372.951 412.502 371.678 411.912 370.57 410.804C369.462 409.697 368.873 408.424 368.802 406.986C368.732 405.548 369.474 404.052 371.03 402.496ZM390.505 439.126C392.188 437.443 391.934 435.506 389.742 433.314L386.157 429.729L393.221 423.81L400.624 431.214L399.097 432.741L393.306 426.95L389.105 430.429C389.968 431.037 390.732 431.673 391.396 432.338C392.853 433.795 393.673 435.265 393.857 436.75C394.055 438.221 393.504 439.607 392.203 440.908C390.901 442.209 389.381 442.853 387.642 442.838C385.916 442.81 384.361 442.103 382.975 440.717C381.589 439.331 380.804 437.853 380.62 436.284C380.45 434.7 380.981 433.292 382.211 432.062L383.887 433.738C382.727 434.898 382.565 436.248 383.399 437.79C383.668 438.256 384.021 438.709 384.46 439.147C385.365 440.052 386.376 440.498 387.493 440.484C388.625 440.455 389.629 440.003 390.505 439.126ZM393.697 447.875L401.439 455.618L399.891 457.166L390.472 447.748L392.445 445.775C394.015 444.205 395.761 443.647 397.685 444.099C398.307 444.241 398.943 444.453 399.594 444.736L403.285 446.305C405.18 447.126 406.743 446.92 407.973 445.69C408.652 445.011 408.97 444.226 408.928 443.335C408.899 442.43 408.461 441.554 407.612 440.705C406.778 439.871 405.915 439.362 405.024 439.178C404.148 439.008 403.313 439.234 402.521 439.856L400.676 438.011C401.906 436.922 403.264 436.498 404.749 436.738C406.234 436.979 407.648 437.771 408.991 439.114C410.349 440.472 411.084 441.942 411.197 443.526C411.311 445.11 410.823 446.447 409.734 447.536C408.659 448.61 407.521 449.183 406.318 449.254C405.131 449.339 403.858 449.084 402.5 448.49L398.724 446.878C397.762 446.482 396.928 446.298 396.221 446.327C395.542 446.355 394.913 446.659 394.333 447.239L393.697 447.875ZM422.06 459.48C420.646 460.895 418.885 461.1 416.778 460.096C417.386 461.184 417.676 462.266 417.648 463.341C417.62 464.416 417.174 465.385 416.312 466.247C415.138 467.421 413.745 467.923 412.133 467.754C410.534 467.57 409.007 466.749 407.55 465.293C406.094 463.836 405.224 462.217 404.941 460.435C404.687 458.653 405.245 457.076 406.617 455.704L408.357 457.444C407.48 458.377 407.119 459.403 407.275 460.52C407.444 461.651 408.024 462.712 409.014 463.702C410.004 464.692 411.001 465.222 412.005 465.293C413.038 465.363 413.9 465.052 414.593 464.359C415.3 463.652 415.611 462.818 415.527 461.856C415.456 460.88 414.834 459.806 413.66 458.632L412.133 457.104L413.469 455.768L414.508 456.807C415.527 457.826 416.531 458.434 417.521 458.632C418.525 458.816 419.366 458.568 420.045 457.889C420.724 457.211 421.042 456.412 421 455.492C420.957 454.573 420.54 453.717 419.748 452.925C418.956 452.134 418.15 451.61 417.33 451.356C416.538 451.101 415.675 451.257 414.742 451.822L413.002 450.083C414.332 449.065 415.689 448.683 417.075 448.937C418.475 449.178 419.819 449.941 421.106 451.228C422.407 452.53 423.149 453.965 423.333 455.535C423.545 457.104 423.121 458.42 422.06 459.48ZM427.296 459.964C428.371 460.785 429.559 461.251 430.86 461.365L432.218 462.722L418.832 476.108L417.177 474.453L428.569 463.062C427.409 462.807 426.433 462.326 425.642 461.619L427.296 459.964Z" fill="#C9C9C9"/>
<g clip-path="url(#clip0)">
<path d="M427.744 70.8238L403.062 88.3189L408.809 94.0663L433.494 76.5742L427.744 70.8238Z" fill="white"/>
<path d="M419.308 62.4347L399.296 71.1874L400.868 68.4157C402.374 64.6891 402.98 57.7797 401.648 51.7115L389.209 74.4455L395.301 80.5167L425.401 68.5192L419.308 62.4347Z" fill="white"/>
<path d="M409.387 55.5327C410.337 53.9141 409.752 52.5629 408.596 51.3153L399.685 42.4044L399.191 42.7503C404.444 51.367 404.979 60.0089 402.009 66.7867L409.387 55.5327Z" fill="white"/>
<path d="M441.1 92.2658C443.01 94.1166 443.962 95.8905 444.594 97.3747L444.869 98.1374L450.218 94.3442C449.507 92.7788 448.181 90.5363 445.954 88.31C440.275 82.6306 433.412 81.4879 429.281 85.556C426.215 88.548 427.413 93.1276 428.585 96.3192C429.79 99.5935 429.883 101.002 428.949 101.916C427.519 103.31 425.104 102.189 423.453 100.538C421.151 98.2365 420.246 96.6961 419.145 94.022L418.741 92.9443L413.213 96.8558C413.968 98.7908 415.943 101.78 418.493 104.383C424.535 110.425 431.287 111.524 435.709 107.186C438.13 104.815 438.426 101.453 436.605 96.6311C435.573 93.6421 434.993 91.7617 435.993 90.7861C436.869 89.9095 438.85 90.0159 441.1 92.2658Z" fill="white"/>
<path d="M465.467 108.595L461.027 104.154C459.648 102.775 458.246 102.124 456.265 102.893L428.405 113.686L434.44 119.721C434.44 119.721 438.024 118.107 438.816 117.761C439.477 118.422 445.332 124.295 446.167 125.13C445.603 126.038 443.709 128.99 443.709 128.99L449.041 134.322L465.467 108.595ZM444.787 115.099C446.47 114.361 452.97 111.495 452.97 111.495C452.882 111.522 454.658 110.744 455.749 110.247L454.318 112.453C454.318 112.453 450.385 118.589 449.561 119.874L444.787 115.099Z" fill="white"/>
</g>
<g filter="url(#filter2_d)">
<rect x="434.164" y="275.065" width="650" height="400" rx="15" transform="rotate(45 434.164 275.065)" fill="white"/>
</g>
<path d="M210.81 544.041L212.846 546.077L203.979 563.896L202.24 562.157L204.488 557.617L199.185 552.314L194.645 554.563L192.885 552.802L210.81 544.041ZM200.946 551.444L205.379 555.878L209.749 547.096L200.946 551.444ZM223.012 556.243L225.048 558.279L216.181 576.098L214.441 574.359L216.69 569.819L211.387 564.516L206.847 566.764L205.086 565.004L223.012 556.243ZM213.147 563.646L217.581 568.08L221.951 559.297L213.147 563.646ZM233.919 567.15L227.746 573.323L239.88 573.111L242.192 575.423L230.355 575.593L229.21 589.127L227.046 586.963L228.064 575.636L225.392 575.678L220.576 580.493L218.879 578.796L232.222 565.453L233.919 567.15ZM248.14 581.371L250.177 583.408L241.309 601.227L239.57 599.487L241.819 594.948L236.515 589.644L231.976 591.893L230.215 590.132L248.14 581.371ZM238.276 588.775L242.709 593.208L247.079 584.426L238.276 588.775ZM261.212 600.934C262.272 599.392 261.968 597.787 260.299 596.118C259.408 595.228 258.525 594.74 257.648 594.655C256.785 594.556 256.078 594.782 255.526 595.334C254.989 595.871 254.727 596.43 254.741 597.009C254.756 597.589 254.989 598.318 255.442 599.194L257.266 602.928C257.888 604.201 258.192 605.396 258.178 606.513C258.178 607.644 257.662 608.726 256.629 609.759C255.611 610.777 254.31 611.201 252.726 611.031C251.156 610.847 249.636 610.02 248.165 608.549C246.695 607.079 245.853 605.502 245.641 603.819C245.457 602.136 246.023 600.609 247.338 599.237L248.971 600.87C248.095 601.747 247.727 602.723 247.868 603.798C248.024 604.887 248.583 605.912 249.544 606.874C250.52 607.849 251.503 608.408 252.493 608.549C253.497 608.677 254.289 608.45 254.869 607.871C255.463 607.277 255.753 606.633 255.739 605.94C255.739 605.261 255.512 604.469 255.06 603.564L253.575 600.34C252.839 598.869 252.443 597.596 252.387 596.522C252.33 595.447 252.79 594.421 253.766 593.446C254.756 592.456 255.972 592.031 257.414 592.173C258.871 592.3 260.313 593.078 261.742 594.506C263.17 595.935 263.941 597.342 264.054 598.728C264.196 600.114 263.792 601.393 262.845 602.567L261.212 600.934ZM271.87 605.102L265.994 610.978L272.549 617.533L278.425 611.656L280.101 613.332L266.758 626.675L265.082 625L271.107 618.975L264.552 612.42L258.527 618.445L256.852 616.769L270.195 603.426L271.87 605.102ZM287.425 620.656L297.798 631.029L296.355 632.471L292.007 628.123L280.106 640.023L278.43 638.347L290.331 626.447L285.982 622.098L287.425 620.656ZM301.743 634.974L295.867 640.85L302.422 647.405L308.298 641.529L309.974 643.205L296.631 656.548L294.955 654.872L300.979 648.848L294.424 642.293L288.4 648.317L286.724 646.641L300.067 633.298L301.743 634.974ZM317.249 650.48L319.285 652.516L310.418 670.335L308.679 668.596L310.927 664.056L305.624 658.753L301.084 661.002L299.324 659.241L317.249 650.48ZM307.385 657.883L311.818 662.317L316.188 653.534L307.385 657.883ZM330.723 663.954C332.194 665.425 332.936 666.917 332.951 668.43C332.993 669.943 332.385 671.329 331.126 672.588C329.868 673.847 328.482 674.455 326.968 674.412C325.484 674.37 324.006 673.613 322.535 672.143L319.904 669.512L314.75 674.667L313.074 672.991L326.417 659.648L330.723 663.954ZM323.977 670.7C324.897 671.619 325.823 672.079 326.756 672.079C327.704 672.093 328.581 671.697 329.387 670.891C330.207 670.071 330.617 669.18 330.617 668.218C330.645 667.256 330.2 666.316 329.281 665.397L326.65 662.766L321.347 668.07L323.977 670.7ZM340.388 673.62L342.425 675.656L333.558 693.475L331.818 691.736L334.067 687.196L328.764 681.893L324.224 684.141L322.463 682.381L340.388 673.62ZM330.524 681.023L334.958 685.457L339.328 676.674L330.524 681.023Z" fill="black"/>
<g filter="url(#filter3_i)">
<rect x="673.873" y="797.616" width="80" height="60" rx="10" transform="rotate(45 673.873 797.616)" fill="#DCDCDC"/>
</g>
<path d="M235.537 514.491C237.14 512.888 238.649 512.134 240.063 512.228C241.477 512.322 242.738 512.923 243.846 514.031C244.954 515.139 245.555 516.4 245.649 517.814C245.743 519.228 244.989 520.737 243.386 522.34C241.831 523.895 240.334 524.638 238.896 524.567C237.458 524.496 236.185 523.907 235.078 522.799C233.97 521.692 233.381 520.419 233.31 518.981C233.239 517.543 233.982 516.047 235.537 514.491ZM248.83 527.784C250.433 526.181 251.941 525.427 253.356 525.521C254.77 525.615 256.031 526.216 257.139 527.324C258.246 528.432 258.847 529.693 258.942 531.107C259.036 532.521 258.282 534.03 256.679 535.633C255.123 537.188 253.627 537.931 252.189 537.86C250.751 537.789 249.478 537.2 248.37 536.092C247.263 534.984 246.673 533.712 246.603 532.274C246.532 530.836 247.274 529.339 248.83 527.784ZM262.123 541.076C263.726 539.474 265.234 538.719 266.648 538.814C268.063 538.908 269.324 539.509 270.431 540.617C271.539 541.725 272.14 542.986 272.234 544.4C272.329 545.814 271.575 547.323 269.972 548.925C268.416 550.481 266.919 551.223 265.482 551.153C264.044 551.082 262.771 550.493 261.663 549.385C260.555 548.277 259.966 547.004 259.895 545.567C259.825 544.129 260.567 542.632 262.123 541.076ZM275.416 554.369C277.018 552.766 278.527 552.012 279.941 552.106C281.355 552.201 282.616 552.802 283.724 553.91C284.832 555.017 285.433 556.278 285.527 557.693C285.622 559.107 284.867 560.615 283.265 562.218C281.709 563.774 280.212 564.516 278.774 564.445C277.337 564.375 276.064 563.786 274.956 562.678C273.848 561.57 273.259 560.297 273.188 558.859C273.118 557.422 273.86 555.925 275.416 554.369ZM297.133 576.087C298.736 574.484 300.244 573.729 301.658 573.824C303.073 573.918 304.334 574.519 305.441 575.627C306.549 576.735 307.15 577.996 307.245 579.41C307.339 580.824 306.585 582.333 304.982 583.935C303.426 585.491 301.929 586.233 300.492 586.163C299.054 586.092 297.781 585.503 296.673 584.395C295.566 583.287 294.976 582.014 294.906 580.577C294.835 579.139 295.577 577.642 297.133 576.087ZM310.426 589.379C312.028 587.777 313.537 587.022 314.951 587.117C316.365 587.211 317.626 587.812 318.734 588.92C319.842 590.027 320.443 591.288 320.537 592.703C320.632 594.117 319.877 595.625 318.275 597.228C316.719 598.784 315.222 599.526 313.784 599.456C312.347 599.385 311.074 598.796 309.966 597.688C308.858 596.58 308.269 595.307 308.198 593.869C308.128 592.432 308.87 590.935 310.426 589.379ZM323.718 602.672C325.321 601.069 326.83 600.315 328.244 600.409C329.658 600.504 330.919 601.105 332.027 602.212C333.135 603.32 333.736 604.581 333.83 605.995C333.924 607.41 333.17 608.918 331.567 610.521C330.012 612.077 328.515 612.819 327.077 612.748C325.639 612.678 324.367 612.088 323.259 610.981C322.151 609.873 321.562 608.6 321.491 607.162C321.42 605.724 322.163 604.228 323.718 602.672ZM337.011 615.965C338.614 614.362 340.123 613.608 341.537 613.702C342.951 613.796 344.212 614.397 345.32 615.505C346.428 616.613 347.029 617.874 347.123 619.288C347.217 620.702 346.463 622.211 344.86 623.814C343.305 625.369 341.808 626.112 340.37 626.041C338.932 625.97 337.659 625.381 336.552 624.273C335.444 623.166 334.855 621.893 334.784 620.455C334.713 619.017 335.456 617.52 337.011 615.965ZM358.729 637.682C360.331 636.079 361.84 635.325 363.254 635.419C364.668 635.514 365.929 636.115 367.037 637.223C368.145 638.33 368.746 639.591 368.84 641.006C368.934 642.42 368.18 643.928 366.577 645.531C365.022 647.087 363.525 647.829 362.087 647.758C360.65 647.688 359.377 647.098 358.269 645.991C357.161 644.883 356.572 643.61 356.501 642.172C356.43 640.734 357.173 639.238 358.729 637.682ZM372.021 650.975C373.624 649.372 375.133 648.618 376.547 648.712C377.961 648.806 379.222 649.407 380.33 650.515C381.438 651.623 382.039 652.884 382.133 654.298C382.227 655.713 381.473 657.221 379.87 658.824C378.315 660.379 376.818 661.122 375.38 661.051C373.942 660.98 372.67 660.391 371.562 659.283C370.454 658.176 369.865 656.903 369.794 655.465C369.723 654.027 370.466 652.531 372.021 650.975ZM385.314 664.268C386.917 662.665 388.425 661.911 389.84 662.005C391.254 662.099 392.515 662.7 393.623 663.808C394.73 664.916 395.331 666.177 395.426 667.591C395.52 669.005 394.766 670.514 393.163 672.117C391.607 673.672 390.111 674.415 388.673 674.344C387.235 674.273 385.962 673.684 384.854 672.576C383.747 671.468 383.157 670.196 383.087 668.758C383.016 667.32 383.758 665.823 385.314 664.268ZM398.607 677.56C400.21 675.958 401.718 675.203 403.132 675.298C404.547 675.392 405.808 675.993 406.915 677.101C408.023 678.209 408.624 679.47 408.719 680.884C408.813 682.298 408.059 683.807 406.456 685.409C404.9 686.965 403.403 687.707 401.966 687.637C400.528 687.566 399.255 686.977 398.147 685.869C397.039 684.761 396.45 683.488 396.38 682.051C396.309 680.613 397.051 679.116 398.607 677.56ZM418.083 714.191C419.766 712.508 419.511 710.57 417.319 708.378L413.734 704.793L420.798 698.875L428.201 706.278L426.674 707.805L420.883 702.014L416.683 705.493C417.545 706.101 418.309 706.738 418.974 707.402C420.43 708.859 421.25 710.33 421.434 711.815C421.632 713.286 421.081 714.671 419.78 715.973C418.479 717.274 416.958 717.917 415.219 717.903C413.494 717.875 411.938 717.168 410.552 715.782C409.166 714.396 408.381 712.918 408.197 711.348C408.028 709.764 408.558 708.357 409.788 707.127L411.464 708.802C410.304 709.962 410.142 711.313 410.976 712.854C411.245 713.321 411.598 713.773 412.037 714.212C412.942 715.117 413.953 715.562 415.07 715.548C416.202 715.52 417.206 715.067 418.083 714.191ZM421.274 722.94L429.017 730.682L427.468 732.231L418.049 722.812L420.022 720.839C421.592 719.27 423.339 718.711 425.262 719.164C425.884 719.305 426.52 719.517 427.171 719.8L430.862 721.37C432.757 722.19 434.32 721.985 435.55 720.755C436.229 720.076 436.547 719.291 436.505 718.4C436.477 717.495 436.038 716.618 435.19 715.77C434.355 714.935 433.493 714.426 432.602 714.242C431.725 714.072 430.89 714.299 430.098 714.921L428.253 713.075C429.483 711.987 430.841 711.562 432.326 711.803C433.811 712.043 435.225 712.835 436.568 714.179C437.926 715.536 438.662 717.007 438.775 718.591C438.888 720.175 438.4 721.511 437.311 722.6C436.236 723.675 435.098 724.248 433.896 724.318C432.708 724.403 431.435 724.149 430.077 723.555L426.301 721.943C425.34 721.547 424.505 721.363 423.798 721.391C423.119 721.419 422.49 721.723 421.91 722.303L421.274 722.94ZM449.637 734.545C448.223 735.959 446.463 736.164 444.355 735.16C444.963 736.249 445.253 737.331 445.225 738.406C445.197 739.48 444.751 740.449 443.889 741.312C442.715 742.486 441.322 742.988 439.71 742.818C438.112 742.634 436.584 741.814 435.128 740.357C433.671 738.901 432.801 737.281 432.518 735.499C432.264 733.718 432.822 732.141 434.194 730.769L435.934 732.508C435.057 733.442 434.696 734.467 434.852 735.584C435.022 736.716 435.601 737.776 436.591 738.766C437.581 739.756 438.578 740.287 439.582 740.357C440.615 740.428 441.477 740.117 442.17 739.424C442.878 738.717 443.189 737.882 443.104 736.921C443.033 735.945 442.411 734.87 441.237 733.696L439.71 732.169L441.046 730.833L442.086 731.872C443.104 732.89 444.108 733.498 445.098 733.696C446.102 733.88 446.943 733.633 447.622 732.954C448.301 732.275 448.619 731.476 448.577 730.557C448.534 729.638 448.117 728.782 447.325 727.99C446.533 727.198 445.727 726.675 444.907 726.42C444.115 726.166 443.252 726.321 442.319 726.887L440.579 725.147C441.909 724.129 443.266 723.747 444.652 724.002C446.052 724.242 447.396 725.006 448.683 726.293C449.984 727.594 450.726 729.029 450.91 730.599C451.122 732.169 450.698 733.484 449.637 734.545ZM454.873 735.029C455.948 735.849 457.136 736.316 458.437 736.429L459.795 737.787L446.409 751.172L444.755 749.518L456.146 738.126C454.986 737.872 454.011 737.391 453.219 736.684L454.873 735.029Z" fill="#5F5F5F"/>
<g clip-path="url(#clip1)">
<path d="M455.321 345.888L430.639 363.383L436.386 369.131L461.071 351.639L455.321 345.888Z" fill="black"/>
<path d="M446.885 337.499L426.874 346.252L428.445 343.48C429.951 339.754 430.557 332.844 429.225 326.776L416.786 349.51L422.878 355.581L452.978 343.584L446.885 337.499Z" fill="black"/>
<path d="M436.964 330.597C437.915 328.979 437.329 327.627 436.173 326.38L427.262 317.469L426.769 317.815C432.021 326.432 432.556 335.073 429.586 341.851L436.964 330.597Z" fill="black"/>
<path d="M468.677 367.33C470.587 369.181 471.539 370.955 472.172 372.439L472.447 373.202L477.795 369.409C477.084 367.843 475.758 365.601 473.532 363.375C467.852 357.695 460.989 356.552 456.858 360.621C453.793 363.613 454.99 368.192 456.162 371.384C457.367 374.658 457.46 376.067 456.526 376.98C455.096 378.374 452.681 377.254 451.03 375.603C448.728 373.301 447.823 371.761 446.722 369.086L446.319 368.009L440.79 371.92C441.545 373.855 443.52 376.844 446.07 379.448C452.112 385.489 458.864 386.589 463.286 382.25C465.707 379.879 466.003 376.518 464.182 371.696C463.15 368.707 462.57 366.826 463.57 365.851C464.446 364.974 466.427 365.08 468.677 367.33Z" fill="black"/>
<path d="M493.045 383.659L488.604 379.218C487.225 377.839 485.823 377.189 483.842 377.958L455.982 388.75L462.018 394.786C462.018 394.786 465.601 393.172 466.393 392.826C467.054 393.487 472.909 399.36 473.744 400.195C473.18 401.102 471.286 404.055 471.286 404.055L476.618 409.387L493.045 383.659ZM472.364 390.163C474.048 389.426 480.547 386.559 480.547 386.559C480.459 386.586 482.236 385.808 483.327 385.312L481.896 387.517C481.896 387.517 477.962 393.654 477.139 394.938L472.364 390.163Z" fill="black"/>
</g>
<defs>
<filter id="filter0_d" x="103.744" y="-20" width="782.462" height="782.462" filterUnits="userSpaceOnUse" color-interpolation-filters="sRGB">
<feFlood flood-opacity="0" result="BackgroundImageFix"/>
<feColorMatrix in="SourceAlpha" type="matrix" values="0 0 0 0 0 0 0 0 0 0 0 0 0 0 0 0 0 0 127 0"/>
<feMorphology radius="5" operator="dilate" in="SourceAlpha" result="effect1_dropShadow"/>
<feOffset/>
<feGaussianBlur stdDeviation="7.5"/>
<feColorMatrix type="matrix" values="0 0 0 0 0.795833 0 0 0 0 0.795833 0 0 0 0 0.795833 0 0 0 0.25 0"/>
<feBlend mode="normal" in2="BackgroundImageFix" result="effect1_dropShadow"/>
<feBlend mode="normal" in="SourceGraphic" in2="effect1_dropShadow" result="shape"/>
</filter>
<filter id="filter1_i" x="603.869" y="522.552" width="98.9949" height="98.9949" filterUnits="userSpaceOnUse" color-interpolation-filters="sRGB">
<feFlood flood-opacity="0" result="BackgroundImageFix"/>
<feBlend mode="normal" in="SourceGraphic" in2="BackgroundImageFix" result="shape"/>
<feColorMatrix in="SourceAlpha" type="matrix" values="0 0 0 0 0 0 0 0 0 0 0 0 0 0 0 0 0 0 127 0" result="hardAlpha"/>
<feMorphology radius="2" operator="erode" in="SourceAlpha" result="effect1_innerShadow"/>
<feOffset/>
<feGaussianBlur stdDeviation="7.5"/>
<feComposite in2="hardAlpha" operator="arithmetic" k2="-1" k3="1"/>
<feColorMatrix type="matrix" values="0 0 0 0 0.708333 0 0 0 0 0.708333 0 0 0 0 0.708333 0 0 0 0.25 0"/>
<feBlend mode="normal" in2="shape" result="effect1_innerShadow"/>
</filter>
<filter id="filter2_d" x="131.321" y="255.065" width="782.462" height="782.462" filterUnits="userSpaceOnUse" color-interpolation-filters="sRGB">
<feFlood flood-opacity="0" result="BackgroundImageFix"/>
<feColorMatrix in="SourceAlpha" type="matrix" values="0 0 0 0 0 0 0 0 0 0 0 0 0 0 0 0 0 0 127 0"/>
<feMorphology radius="5" operator="dilate" in="SourceAlpha" result="effect1_dropShadow"/>
<feOffset/>
<feGaussianBlur stdDeviation="7.5"/>
<feColorMatrix type="matrix" values="0 0 0 0 0.795833 0 0 0 0 0.795833 0 0 0 0 0.795833 0 0 0 0.25 0"/>
<feBlend mode="normal" in2="BackgroundImageFix" result="effect1_dropShadow"/>
<feBlend mode="normal" in="SourceGraphic" in2="effect1_dropShadow" result="shape"/>
</filter>
<filter id="filter3_i" x="631.446" y="797.616" width="98.9949" height="98.9949" filterUnits="userSpaceOnUse" color-interpolation-filters="sRGB">
<feFlood flood-opacity="0" result="BackgroundImageFix"/>
<feBlend mode="normal" in="SourceGraphic" in2="BackgroundImageFix" result="shape"/>
<feColorMatrix in="SourceAlpha" type="matrix" values="0 0 0 0 0 0 0 0 0 0 0 0 0 0 0 0 0 0 127 0" result="hardAlpha"/>
<feMorphology radius="2" operator="erode" in="SourceAlpha" result="effect1_innerShadow"/>
<feOffset/>
<feGaussianBlur stdDeviation="7.5"/>
<feComposite in2="hardAlpha" operator="arithmetic" k2="-1" k3="1"/>
<feColorMatrix type="matrix" values="0 0 0 0 0.708333 0 0 0 0 0.708333 0 0 0 0 0.708333 0 0 0 0.25 0"/>
<feBlend mode="normal" in2="shape" result="effect1_innerShadow"/>
</filter>
<clipPath id="clip0">
<rect width="100" height="100" fill="white" transform="translate(424.264 17.6777) rotate(45)"/>
</clipPath>
<clipPath id="clip1">
<rect width="100" height="100" fill="white" transform="translate(451.841 292.742) rotate(45)"/>
</clipPath>
</defs>
</svg>
